{
    "asset" : {
        "generator" : "Khronos glTF Blender I/O v0.9.36",
        "version" : "2.0"
    },
    "scene" : 0,
    "scenes" : [
        {
            "name" : "Scene",
            "nodes" : [
                0,
                1,
                2,
                3,
                4,
                5
            ]
        }
    ],
    "nodes" : [
        {
            "mesh" : 0,
            "name" : "CockpitPipes",
            "rotation" : [
                0,
                0.7071067690849304,
                0,
                0.7071067690849304
            ],
            "scale" : [
                0.20000000298023224,
                0.5,
                0.20000000298023224
            ],
            "translation" : [
                -0.26000022888183594,
                25.198579788208008,
                -3.751079559326172
            ]
        },
        {
            "mesh" : 1,
            "name" : "CockpitPipes.001",
            "rotation" : [
                0,
                0.7071067690849304,
                0,
                -0.7071067690849304
            ],
            "scale" : [
                0.20000000298023224,
                0.5,
                0.20000000298023224
            ],
            "translation" : [
                0.18000030517578125,
                25.198579788208008,
                3.738919258117676
            ]
        },
        {
            "name" : "Area",
            "rotation" : [
                0.6602804064750671,
                0.3060166537761688,
                -0.30969899892807007,
                0.6119396686553955
            ],
            "scale" : [
                5.089999675750732,
                0.23000001907348633,
                4.239999771118164
            ],
            "translation" : [
                26.16165542602539,
                13.239418029785156,
                23.394777297973633
            ]
        },
        {
            "mesh" : 2,
            "name" : "Body.001",
            "scale" : [
                3,
                3,
                3
            ],
            "translation" : [
                0,
                12.446298599243164,
                0
            ]
        },
        {
            "name" : "Camera",
            "rotation" : [
                0.5986390709877014,
                0.3087719976902008,
                -0.26841139793395996,
                0.6886554956436157
            ],
            "translation" : [
                100,
                37.04112243652344,
                87.97000122070312
            ]
        },
        {
            "name" : "Sun",
            "rotation" : [
                0.4399150013923645,
                0.3901675045490265,
                -0.12399985641241074,
                0.799292266368866
            ],
            "translation" : [
                84.10618591308594,
                48.83522033691406,
                41.36116027832031
            ]
        }
    ],
    "materials" : [
        {
            "doubleSided" : true,
            "name" : "Thruster Accents.003",
            "pbrMetallicRoughness" : {
                "baseColorFactor" : [
                    0.22025348246097565,
                    0.22025348246097565,
                    0.22025348246097565,
                    1
                ],
                "metallicFactor" : 1,
                "roughnessFactor" : 0.10833333432674408
            }
        },
        {
            "doubleSided" : true,
            "name" : "Thruster Burnt.002",
            "pbrMetallicRoughness" : {
                "baseColorFactor" : [
                    0.8757787942886353,
                    0.8823167085647583,
                    1,
                    1
                ],
                "metallicFactor" : 1,
                "roughnessFactor" : 0
            }
        },
        {
            "doubleSided" : true,
            "name" : "Thruster Accents.005",
            "pbrMetallicRoughness" : {
                "baseColorFactor" : [
                    0.22025348246097565,
                    0.22025348246097565,
                    0.22025348246097565,
                    1
                ],
                "metallicFactor" : 1,
                "roughnessFactor" : 0.10833333432674408
            }
        },
        {
            "doubleSided" : true,
            "name" : "Thruster Burnt.004",
            "pbrMetallicRoughness" : {
                "baseColorFactor" : [
                    0.8757787942886353,
                    0.8823167085647583,
                    1,
                    1
                ],
                "metallicFactor" : 1,
                "roughnessFactor" : 0
            }
        },
        {
            "doubleSided" : true,
            "name" : "Body.002",
            "pbrMetallicRoughness" : {
                "baseColorFactor" : [
                    0.07323326915502548,
                    0.07323326915502548,
                    0.07323326915502548,
                    1
                ],
                "metallicFactor" : 0.9333333373069763,
                "roughnessFactor" : 0.4909090995788574
            }
        },
        {
            "doubleSided" : true,
            "name" : "Thruster Accents.002",
            "pbrMetallicRoughness" : {
                "baseColorFactor" : [
                    1,
                    1,
                    1,
                    1
                ],
                "metallicFactor" : 1,
                "roughnessFactor" : 0.21666666865348816
            }
        },
        {
            "doubleSided" : true,
            "name" : "Material.007",
            "pbrMetallicRoughness" : {
                "baseColorFactor" : [
                    0.014668423682451248,
                    0.014668423682451248,
                    0.014668423682451248,
                    1
                ],
                "metallicFactor" : 0.6333333253860474,
                "roughnessFactor" : 0.1818181872367859
            }
        },
        {
            "doubleSided" : true,
            "name" : "Material.008",
            "pbrMetallicRoughness" : {
                "baseColorFactor" : [
                    0,
                    0,
                    0,
                    1
                ],
                "metallicFactor" : 0,
                "roughnessFactor" : 0.7083333134651184
            }
        },
        {
            "doubleSided" : true,
            "name" : "Material.009",
            "pbrMetallicRoughness" : {
                "baseColorFactor" : [
                    0.006488860584795475,
                    1,
                    0.6391865611076355,
                    1
                ],
                "metallicFactor" : 0.9083333611488342,
                "roughnessFactor" : 0.10833339393138885
            }
        }
    ],
    "meshes" : [
        {
            "name" : "Cylinder.003",
            "primitives" : [
                {
                    "attributes" : {
                        "POSITION" : 0,
                        "TEXCOORD_0" : 1
                    },
                    "indices" : 2,
                    "material" : 0
                },
                {
                    "attributes" : {
                        "POSITION" : 3,
                        "TEXCOORD_0" : 4
                    },
                    "indices" : 5,
                    "material" : 1
                }
            ]
        },
        {
            "name" : "Cylinder.007",
            "primitives" : [
                {
                    "attributes" : {
                        "POSITION" : 6,
                        "TEXCOORD_0" : 7
                    },
                    "indices" : 2,
                    "material" : 2
                },
                {
                    "attributes" : {
                        "POSITION" : 8,
                        "TEXCOORD_0" : 9
                    },
                    "indices" : 5,
                    "material" : 3
                }
            ]
        },
        {
            "name" : "Cylinder.001",
            "primitives" : [
                {
                    "attributes" : {
                        "POSITION" : 10,
                        "TEXCOORD_0" : 11
                    },
                    "indices" : 12,
                    "material" : 4
                },
                {
                    "attributes" : {
                        "POSITION" : 13,
                        "TEXCOORD_0" : 14
                    },
                    "indices" : 15,
                    "material" : 5
                },
                {
                    "attributes" : {
                        "POSITION" : 16,
                        "TEXCOORD_0" : 17
                    },
                    "indices" : 18,
                    "material" : 6
                },
                {
                    "attributes" : {
                        "POSITION" : 19,
                        "TEXCOORD_0" : 20
                    },
                    "indices" : 21,
                    "material" : 7
                },
                {
                    "attributes" : {
                        "POSITION" : 22,
                        "TEXCOORD_0" : 23
                    },
                    "indices" : 24,
                    "material" : 8
                }
            ]
        }
    ],
    "accessors" : [
        {
            "bufferView" : 0,
            "componentType" : 5126,
            "count" : 998,
            "max" : [
                1.2828327417373657,
                3.9296984672546387,
                3.956362724304199
            ],
            "min" : [
                -1.3720842599868774,
                -2.5540401935577393,
                -1.64955472946167
            ],
            "type" : "VEC3"
        },
        {
            "bufferView" : 1,
            "componentType" : 5126,
            "count" : 998,
            "type" : "VEC2"
        },
        {
            "bufferView" : 2,
            "componentType" : 5123,
            "count" : 1698,
            "type" : "SCALAR"
        },
        {
            "bufferView" : 3,
            "componentType" : 5126,
            "count" : 78,
            "max" : [
                1.2828327417373657,
                1.6648313999176025,
                4.1861748695373535
            ],
            "min" : [
                -0.7181454300880432,
                0.9962238669395447,
                -1.8695147037506104
            ],
            "type" : "VEC3"
        },
        {
            "bufferView" : 4,
            "componentType" : 5126,
            "count" : 78,
            "type" : "VEC2"
        },
        {
            "bufferView" : 5,
            "componentType" : 5123,
            "count" : 150,
            "type" : "SCALAR"
        },
        {
            "bufferView" : 6,
            "componentType" : 5126,
            "count" : 998,
            "max" : [
                1.2828327417373657,
                3.9296984672546387,
                3.956362724304199
            ],
            "min" : [
                -1.3720842599868774,
                -2.5540401935577393,
                -1.64955472946167
            ],
            "type" : "VEC3"
        },
        {
            "bufferView" : 7,
            "componentType" : 5126,
            "count" : 998,
            "type" : "VEC2"
        },
        {
            "bufferView" : 8,
            "componentType" : 5126,
            "count" : 78,
            "max" : [
                1.2828327417373657,
                1.6648313999176025,
                4.1861748695373535
            ],
            "min" : [
                -0.7181454300880432,
                0.9962238669395447,
                -1.8695147037506104
            ],
            "type" : "VEC3"
        },
        {
            "bufferView" : 9,
            "componentType" : 5126,
            "count" : 78,
            "type" : "VEC2"
        },
        {
            "bufferView" : 10,
            "componentType" : 5126,
            "count" : 1231,
            "max" : [
                1.3800767660140991,
                8.312298774719238,
                1.509201169013977
            ],
            "min" : [
                -1.3800767660140991,
                -3.759380340576172,
                -1.509201169013977
            ],
            "type" : "VEC3"
        },
        {
            "bufferView" : 11,
            "componentType" : 5126,
            "count" : 1231,
            "type" : "VEC2"
        },
        {
            "bufferView" : 12,
            "componentType" : 5123,
            "count" : 2226,
            "type" : "SCALAR"
        },
        {
            "bufferView" : 13,
            "componentType" : 5126,
            "count" : 531,
            "max" : [
                1.3848719596862793,
                -1.983128547668457,
                1.3848719596862793
            ],
            "min" : [
                -1.3848719596862793,
                -3.878676414489746,
                -1.3848719596862793
            ],
            "type" : "VEC3"
        },
        {
            "bufferView" : 14,
            "componentType" : 5126,
            "count" : 531,
            "type" : "VEC2"
        },
        {
            "bufferView" : 15,
            "componentType" : 5123,
            "count" : 807,
            "type" : "SCALAR"
        },
        {
            "bufferView" : 16,
            "componentType" : 5126,
            "count" : 264,
            "max" : [
                1.2127463817596436,
                6.281637668609619,
                1.1597689390182495
            ],
            "min" : [
                -1.0973396301269531,
                5.405213356018066,
                -1.1597689390182495
            ],
            "type" : "VEC3"
        },
        {
            "bufferView" : 17,
            "componentType" : 5126,
            "count" : 264,
            "type" : "VEC2"
        },
        {
            "bufferView" : 18,
            "componentType" : 5123,
            "count" : 408,
            "type" : "SCALAR"
        },
        {
            "bufferView" : 19,
            "componentType" : 5126,
            "count" : 19,
            "max" : [
                1.1102975606918335,
                -1.982151985168457,
                1.1420817375183105
            ],
            "min" : [
                -1.0954699516296387,
                -3.459501028060913,
                -1.1102975606918335
            ],
            "type" : "VEC3"
        },
        {
            "bufferView" : 20,
            "componentType" : 5126,
            "count" : 19,
            "type" : "VEC2"
        },
        {
            "bufferView" : 21,
            "componentType" : 5123,
            "count" : 51,
            "type" : "SCALAR"
        },
        {
            "bufferView" : 22,
            "componentType" : 5126,
            "count" : 292,
            "max" : [
                1.3800767660140991,
                6.0970540046691895,
                1.3800767660140991
            ],
            "min" : [
                -1.3800767660140991,
                -2.76438045501709,
                -1.3800767660140991
            ],
            "type" : "VEC3"
        },
        {
            "bufferView" : 23,
            "componentType" : 5126,
            "count" : 292,
            "type" : "VEC2"
        },
        {
            "bufferView" : 24,
            "componentType" : 5123,
            "count" : 612,
            "type" : "SCALAR"
        }
    ],
    "bufferViews" : [
        {
            "buffer" : 0,
            "byteLength" : 11976,
            "byteOffset" : 0
        },
        {
            "buffer" : 0,
            "byteLength" : 7984,
            "byteOffset" : 11976
        },
        {
            "buffer" : 0,
            "byteLength" : 3396,
            "byteOffset" : 19960
        },
        {
            "buffer" : 0,
            "byteLength" : 936,
            "byteOffset" : 23356
        },
        {
            "buffer" : 0,
            "byteLength" : 624,
            "byteOffset" : 24292
        },
        {
            "buffer" : 0,
            "byteLength" : 300,
            "byteOffset" : 24916
        },
        {
            "buffer" : 0,
            "byteLength" : 11976,
            "byteOffset" : 25216
        },
        {
            "buffer" : 0,
            "byteLength" : 7984,
            "byteOffset" : 37192
        },
        {
            "buffer" : 0,
            "byteLength" : 936,
            "byteOffset" : 45176
        },
        {
            "buffer" : 0,
            "byteLength" : 624,
            "byteOffset" : 46112
        },
        {
            "buffer" : 0,
            "byteLength" : 14772,
            "byteOffset" : 46736
        },
        {
            "buffer" : 0,
            "byteLength" : 9848,
            "byteOffset" : 61508
        },
        {
            "buffer" : 0,
            "byteLength" : 4452,
            "byteOffset" : 71356
        },
        {
            "buffer" : 0,
            "byteLength" : 6372,
            "byteOffset" : 75808
        },
        {
            "buffer" : 0,
            "byteLength" : 4248,
            "byteOffset" : 82180
        },
        {
            "buffer" : 0,
            "byteLength" : 1614,
            "byteOffset" : 86428
        },
        {
            "buffer" : 0,
            "byteLength" : 3168,
            "byteOffset" : 88044
        },
        {
            "buffer" : 0,
            "byteLength" : 2112,
            "byteOffset" : 91212
        },
        {
            "buffer" : 0,
            "byteLength" : 816,
            "byteOffset" : 93324
        },
        {
            "buffer" : 0,
            "byteLength" : 228,
            "byteOffset" : 94140
        },
        {
            "buffer" : 0,
            "byteLength" : 152,
            "byteOffset" : 94368
        },
        {
            "buffer" : 0,
            "byteLength" : 102,
            "byteOffset" : 94520
        },
        {
            "buffer" : 0,
            "byteLength" : 3504,
            "byteOffset" : 94624
        },
        {
            "buffer" : 0,
            "byteLength" : 2336,
            "byteOffset" : 98128
        },
        {
            "buffer" : 0,
            "byteLength" : 1224,
            "byteOffset" : 100464
        }
    ],
    "buffers" : [
        {
            "byteLength" : 101688,
            "uri" : "data:application/octet-stream;base64,"
        }
    ]
}
